<?xml version="1.0" encoding="UTF-8" standalone="no"?>
<svg
   width="24"
   height="24"
   viewbox="0 0 186.795 186.795"
   fill="none"
   version="1.1"
   id="svg28"
   xmlns="http://www.w3.org/2000/svg"
   xmlns:svg="http://www.w3.org/2000/svg">
  <metadata
     id="metadata34" />
  <defs
     id="defs32" />
  <path
     d="M 20.53828,3.4630049 C 18.726668,1.6513932 16.791456,2.8239299 15.580374,4.0350116 L 4.1397253,15.476046 c -1.2110817,1.210953 -2.4786959,3.050959 -0.5720067,4.957392 1.9066891,1.907074 3.7466955,0.639203 4.9575205,-0.571879 L 19.966145,8.4207817 c 1.211081,-1.21121 2.383618,-3.1464222 0.572135,-4.9577768 z"
     fill="currentColor"
     id="path2"
     style="stroke-width:0.128483" />
  <path
     d="M 9.6079655,2.994427 12.030515,5.4168473 14.496362,2.9509997 C 14.663776,2.7832008 14.833759,2.6274793 15.004769,2.4806231 14.746519,1.1778045 14.003115,0 12.029358,0 10.051875,0 9.3093714,1.1824299 9.0525332,2.4880751 9.2371637,2.6477796 9.4214086,2.8078696 9.6079655,2.994427 Z"
     fill="currentColor"
     id="path4"
     style="stroke-width:0.128483" />
  <path
     d="M 14.494949,20.98887 12.030643,18.524436 9.6093792,20.945443 C 9.42552,21.12943 9.2425598,21.297486 9.060371,21.455392 9.338023,22.783522 10.123826,24 12.029616,24 c 1.9108,0 2.695574,-1.223031 2.971428,-2.555401 -0.169469,-0.145828 -0.339067,-0.28883 -0.506095,-0.455729 z"
     fill="currentColor"
     id="path6"
     style="stroke-width:0.128483" />
  <path
     d="M 8.5804864,8.8670036 H 3.910126 C 2.1977033,8.8670036 0,9.4065042 0,11.9682 0,13.879643 1.223416,14.664546 2.5560427,14.940271 2.7138199,14.758083 8.5804864,8.8670036 8.5804864,8.8670036 Z"
     fill="currentColor"
     id="path8"
     style="stroke-width:0.128483" />
  <path
     d="M 21.512567,8.9913758 C 21.364811,9.1632857 15.48581,15.069268 15.48581,15.069268 h 4.604064 C 21.802425,15.069268 24,14.664675 24,11.9682 24,9.9909739 22.817955,9.248085 21.512567,8.9913758 Z"
     fill="currentColor"
     id="path10"
     style="stroke-width:0.128483" />
  <path
     d="M 10.11072,7.3339432 10.945089,6.4995743 8.5240827,4.0781819 C 7.3128721,2.8672288 5.4731228,1.5994861 3.5664338,3.5061752 2.1682807,4.9043282 2.4788244,6.2650927 3.2204288,7.3697904 3.4463021,7.3530873 10.11072,7.3339432 10.11072,7.3339432 Z"
     fill="currentColor"
     id="path12"
     style="stroke-width:0.128483" />
  <path
     d="m 13.949538,16.602329 -0.836553,0.836553 2.466104,2.465848 c 1.211082,1.21121 3.146294,2.383489 4.957649,0.572135 1.351642,-1.351771 1.041484,-2.771509 0.294226,-3.908841 -0.24052,0.01734 -6.881426,0.0343 -6.881426,0.0343 z"
     fill="currentColor"
     id="path14"
     style="stroke-width:0.128483" />
</svg>
